# xmcd CD database file
#
# Track frame offsets:
#	187
#	42055
#	71752
#	101822
#	121035
#	144720
#	178435
#	200402
#	223430
#	242517
#	268152
#	295905
#
# Disc length: 4196 seconds
#
# Revision: 2
# Processed by: cddbd v1.5.2PL0 Copyright (c) Steve Scherf et al.
# Submitted via: CDex 1.51
#
DISCID=c610620c
DTITLE=Bo Diddley, Muddy Waters, Howlin' Wolf - The Super, Super Blues Band
DYEAR=1900
DGENRE=Blues
TTITLE0=Long Distance Call
TTITLE1=Ooh Baby - Wrecking My Love Life
TTITLE2=Sweet Little Angel
TTITLE3=Spoonful
TTITLE4=Diddley Daddy
TTITLE5=The Red Rooster
TTITLE6=Goin' Down Slow
TTITLE7=Long Distance Call
TTITLE8=Who Do You Love?
TTITLE9=I'm A Man
TTITLE10=I Just Want To Make Love To You
TTITLE11=You Don't Love Me
EXTD=
EXTT0=
EXTT1=
EXTT2=
EXTT3=
EXTT4=
EXTT5=
EXTT6=
EXTT7=
EXTT8=
EXTT9=
EXTT10=
EXTT11=
PLAYORDER=
